<svg width="105" height="43" viewBox="0 0 105 43" fill="none" xmlns="http://www.w3.org/2000/svg">
<path fill-rule="evenodd" clip-rule="evenodd" d="M70.6001 27.0798C70.6001 27.0798 70.6257 27.0072 70.6001 26.9742C70.4403 26.8158 70.0248 26.3803 69.8649 26.2219C69.8394 26.1955 69.801 26.1955 69.7691 26.2219C69.6156 26.3869 69.1809 26.8224 69.0339 26.9874C69.0147 27.0204 69.0147 27.06 69.0339 27.0864C69.1873 27.2513 69.6156 27.6934 69.7691 27.8452C69.801 27.8716 69.8394 27.8716 69.8649 27.8452H69.8713C70.0184 27.6868 70.4403 27.2513 70.6001 27.0864" fill="white"/>
<path fill-rule="evenodd" clip-rule="evenodd" d="M68.3182 30.049C68.5995 29.8049 69.4817 29.0262 69.8333 28.7425C69.878 28.6963 69.9036 28.6699 69.9164 28.6831C69.9419 28.6963 69.9292 28.7557 69.9228 28.8151C69.8652 30.016 69.8397 31.217 69.8397 32.3849V33.5859C69.8716 34.1204 69.9483 34.4305 70.1081 34.5559C70.2807 34.7077 70.6132 34.8528 71.2524 34.7539H71.3291C71.3291 34.7539 71.4122 34.7341 71.4186 34.7539C71.425 34.7869 71.3355 34.8396 71.2908 34.8594V34.8726C70.7857 35.13 70.3511 35.2686 69.9547 35.295H69.7438C69.373 35.2818 69.0086 35.1168 68.7337 34.8528L68.6443 34.7605C68.5995 34.7209 68.5548 34.6681 68.5228 34.6087C68.3246 34.3249 68.2287 34.0874 68.216 33.6585C68.2032 33.2296 68.216 30.9662 68.2415 30.2866C68.2415 30.2404 68.2415 30.1678 68.2543 30.1282C68.2714 30.1018 68.2948 30.0754 68.3246 30.049" fill="white"/>
<path fill-rule="evenodd" clip-rule="evenodd" d="M67.3747 31.3555C67.0742 29.5937 65.7446 29.4023 65.182 29.4023C64.3063 29.4023 63.5647 29.7322 63.1556 30.3063L63.0533 30.4383V30.2601C63.0789 29.7388 63.0917 29.2175 63.1236 28.7028C63.2835 25.5289 63.5967 23.0874 63.6862 22.4209C63.6862 22.4209 63.699 22.3351 63.6606 22.3219C63.6287 22.2955 63.5647 22.3483 63.5647 22.3549C63.5647 22.3549 62.152 23.5889 62.1584 23.5823C62.1136 23.6285 62.0177 23.7142 62.005 23.7604C61.973 23.8198 61.9474 23.9188 61.9346 24.0244C61.7684 25.5355 61.6406 27.106 61.5639 28.6962C61.5191 29.4947 61.4999 30.7616 61.4872 31.8768C61.4872 31.956 61.4999 32.0088 61.5383 32.0616C61.5703 32.1077 61.647 32.1671 61.6661 32.1803L62.8871 32.9128C62.9255 32.9326 62.9702 32.9524 62.9958 32.9458C63.0214 32.9458 63.0278 32.9194 63.0278 32.8402V32.3849C63.0341 31.3291 63.7757 30.5241 64.741 30.5241C65.4122 30.5241 65.8149 30.8012 65.9172 31.3621C65.9875 31.7448 65.898 32.1737 65.6679 32.5235C65.2524 33.1371 64.7026 33.5595 63.3538 33.5858C62.7145 33.599 60.7904 33.4275 60.2406 32.2925C60.2023 32.2265 60.1831 32.1935 60.1639 32.1275C60.1447 32.088 60.1128 32.0022 60.0872 32.0022C60.0552 32.0022 60.0488 32.0418 60.0488 32.1143C60.0424 32.1473 60.0233 32.2331 60.0233 32.2595C59.9785 32.6026 59.8187 33.0382 59.5694 33.2493C59.3137 33.4737 58.7384 33.5001 58.2845 33.4341C58.0863 33.4011 57.6836 33.3285 57.3 33.1965L57.2361 33.1701L57.2617 33.1173C57.6452 32.1275 57.6644 30.9662 57.3 30.3591C56.9485 29.7454 56.3092 29.3429 55.606 29.2505C54.9156 29.1713 53.9056 29.2835 53.3622 29.7322C53.081 29.95 52.9787 30.5175 52.9467 30.887C52.9339 30.9662 52.9339 31.0388 52.9595 31.0454C52.9787 31.0586 53.0234 31.019 53.081 30.9662C53.3303 30.755 53.7522 30.4713 54.2188 30.3789C54.7686 30.2733 55.2544 30.3987 55.4974 30.5307C56.1174 30.8804 56.2133 31.4875 56.2325 31.6656C56.2581 31.8504 56.2453 32.0484 56.2069 32.2529L56.1941 32.3585L56.1238 32.2859C55.3311 31.5073 54.8197 31.2829 54.1166 31.3951C53.7778 31.4545 53.3878 31.6524 53.081 32.0352C52.902 32.2067 52.4481 32.8798 52.0198 33.0448C51.176 33.4011 47.5195 33.2361 46.9889 32.8996C46.6757 32.7016 46.7204 32.2001 46.7396 32.022V32.0022C46.7396 31.8834 46.8099 30.8342 46.8355 30.2733C46.8546 29.851 46.7843 29.5673 46.6309 29.4023C46.4647 29.2307 46.1898 29.1779 46.0044 29.1779C45.8254 29.1779 45.5442 29.2505 45.1734 29.5805C44.0931 30.5571 43.6136 31.2763 43.4091 31.6194C43.3771 31.659 43.3451 31.7316 43.3132 31.7382C43.2557 31.758 43.2557 31.6656 43.262 31.626C43.262 30.8144 43.3515 28.6105 43.3515 28.5049C43.5114 25.3243 43.8246 22.8828 43.9205 22.2163V22.1965C43.9333 22.1504 43.9397 22.0844 43.9205 22.0844C43.8821 22.0646 43.8438 22.0976 43.8374 22.1042C43.8374 22.1042 42.3927 23.3777 42.3927 23.3711C42.3479 23.4107 42.2648 23.5097 42.2392 23.5493C42.2137 23.6021 42.1817 23.7076 42.1753 23.8198V23.866C42.0411 25.0208 41.8685 26.6045 41.7982 28.4917C41.6959 31.5007 41.7023 32.9788 41.7406 34.5229C41.7534 34.9188 41.9452 35.0376 42.0602 35.0639C42.0986 35.0771 42.4438 35.1695 42.5908 34.8792C43.4219 33.2229 44.0547 32.3123 45.199 31.1113C45.2437 31.0586 45.3077 31.0058 45.3908 31.019C45.4739 31.0454 45.4675 31.1245 45.4611 31.2169L45.4227 31.7184C45.4099 31.9362 45.3971 32.1341 45.3844 32.6158C45.3652 33.0975 45.4099 34.2457 46.1515 34.6812C46.925 35.1233 50.7541 35.0508 50.7541 35.0508C51.9879 35.0705 52.1924 34.8132 52.4353 34.5163C52.544 34.3777 52.6271 34.2193 52.6974 34.0478C52.9467 34.701 53.5668 34.9848 53.5988 34.998C53.5988 34.998 53.9376 35.1431 54.4873 35.1629C54.9092 35.1761 55.3759 35.0508 55.8298 34.8066C55.9576 34.734 56.1494 34.5954 56.3476 34.4173L56.3923 34.3843L56.4243 34.4173C56.5905 34.5559 56.7822 34.6944 57.0188 34.8264C57.6069 35.1695 58.7064 35.1233 58.7064 35.1233C59.7803 35.0903 60.1639 34.5822 60.247 34.2721C60.2598 34.1995 60.279 34.1203 60.2918 34.0346C60.426 34.3513 60.5922 34.5559 60.7904 34.7208C61.4488 35.2817 62.4716 35.3543 63.4816 35.3279C64.6579 35.3147 65.6998 34.7934 66.0834 34.4767C67.3363 33.4341 67.4642 32.0022 67.3619 31.3819L67.3747 31.3555ZM55.5677 33.5331C55.1969 33.8234 54.7366 33.9488 54.3019 33.8828C53.7522 33.8036 53.4326 33.5661 53.4453 33.2295C53.4581 32.8732 53.7138 32.6752 54.2061 32.6488C54.564 32.6224 55.0179 32.893 55.5677 33.4539L55.6124 33.5001L55.5677 33.5463V33.5331Z" fill="white"/>
<path fill-rule="evenodd" clip-rule="evenodd" d="M39.7716 25.8589C39.1963 24.9549 38.3908 24.3214 37.2402 23.8529C36.6776 23.6285 36.0128 23.5098 35.1434 23.4966C35.1434 23.4966 34.1462 23.4702 33.5964 23.4306C33.264 23.391 33.0403 23.2854 32.8741 23.1666C32.7846 23.1006 32.7654 23.0479 32.7079 23.0479C32.6439 23.061 32.6439 23.2194 32.6375 23.3646C32.5608 24.3808 32.2987 27.7659 32.254 28.5973C32.222 29.3694 32.2028 30.5967 32.1965 31.6789C32.1965 31.7581 32.1965 31.8043 32.2348 31.8571C32.2668 31.8967 32.3371 31.9561 32.3627 31.9693L33.5581 32.6753C33.5964 32.6951 33.6348 32.7149 33.6603 32.7017C33.6859 32.6885 33.6923 32.6555 33.6923 32.5697V32.3058L33.7051 32.1672L33.7179 30.346L33.7307 30.0886C33.7434 29.6333 33.7562 29.0592 33.7818 28.6039C33.8138 27.8451 33.8777 27.073 33.9288 26.3208C33.9352 26.1294 33.9672 25.8127 34.1014 25.6081C34.2868 25.3112 34.5106 25.2452 34.7151 25.1924C34.9452 25.1462 35.5717 25.0736 36.4922 25.4366C37.1954 25.7203 37.8283 26.202 38.1863 26.7167C38.4547 27.1192 38.6785 27.6405 38.7616 28.076C38.8766 28.7095 38.915 30.0952 38.3269 31.283C37.8219 32.2728 36.9972 32.9261 35.8466 33.223C35.4886 33.3154 34.958 33.3748 34.3124 33.3946C33.6731 33.3946 31.2056 33.0778 30.6686 31.7647C30.6175 31.6327 30.6047 31.5733 30.5408 31.5733C30.4769 31.5733 30.4641 31.6459 30.4385 31.7713C30.381 32.1144 30.2787 32.4707 30.1764 32.6423C30.0486 32.8733 29.8632 33.4144 27.9838 33.3814C26.6669 33.355 26.1235 33.3418 25.6185 33.0316C25.4012 32.8865 25.3628 32.6027 25.3628 32.3982C25.3628 32.3124 25.4971 29.7851 25.5163 29.4816C25.529 29.3892 25.5354 29.31 25.4907 29.2836C25.4395 29.2704 25.4012 29.31 25.3309 29.3694C25.088 29.5805 24.666 29.9369 24.4103 30.1744C24.2953 30.2668 24.2505 30.2932 24.2186 30.3658C24.1866 30.4384 24.1738 30.4977 24.1674 30.6033C24.1227 31.4216 24.046 33.124 24.046 33.124L24.0268 33.1372C23.7775 33.3088 23.2405 33.4078 23.004 33.421C22.7547 33.4342 21.8469 33.4408 21.2716 33.0514C21.0798 32.9261 20.9584 32.7677 20.92 32.5565C20.8689 32.2926 20.9072 32.0484 21.0287 31.8241C21.2077 31.5337 22.0195 30.3328 22.0195 30.3328C22.0963 30.2008 22.1026 30.1546 22.0835 30.0952C22.0707 30.016 22.0068 29.9699 21.9556 29.9171C21.8533 29.8247 21.6616 29.7125 21.4442 29.5607C21.4442 29.5607 21.2908 29.4618 21.2524 29.4354C21.1885 29.3892 21.1118 29.3892 21.0543 29.4552C20.8113 29.6927 19.9611 31.0322 20.0315 32.5103C20.0762 33.3748 20.3767 33.9884 20.773 34.3514C21.1629 34.7209 21.8469 35.1234 22.9656 35.0838C23.509 35.0574 23.9948 34.8463 24.404 34.4635L24.4487 34.424L24.4871 34.4635C24.5829 34.5823 24.6852 34.6681 24.8067 34.7341C25.5546 35.163 27.2614 35.1696 28.1628 35.163C30.1061 35.1432 30.7006 34.5427 30.8732 34.0016C30.9883 34.2062 31.1161 34.3646 31.2568 34.5031C31.9855 35.1762 33.5005 35.295 34.3316 35.3016C35.5909 35.3148 36.7607 35.1498 37.4767 34.8595C38.1415 34.5889 38.9214 34.1864 39.6565 33.223C40.3917 32.2596 40.7816 30.8871 40.7688 29.376C40.7561 27.9111 40.5004 27.0268 39.7524 25.8523" fill="white"/>
<path fill-rule="evenodd" clip-rule="evenodd" d="M22.516 27.6742C22.663 27.5225 22.9059 27.2321 23.0274 27.0936C23.0594 27.0606 23.0721 27.0342 23.0977 27.0342C23.1361 27.0342 23.1488 27.054 23.1808 27.0804C23.3534 27.2255 23.6475 27.4697 23.7434 27.5687C23.8201 27.6479 24.0438 27.892 24.063 28.3209C24.0758 28.4133 24.063 28.5189 24.0438 28.6245C23.9863 28.9676 23.8392 29.2777 23.7497 29.4427C23.737 29.4757 23.705 29.5285 23.6794 29.5153C23.6475 29.5087 23.6539 29.4493 23.6539 29.3965C23.6539 29.3503 23.6539 29.3305 23.6539 29.2777C23.6347 29.0534 23.5835 28.7696 23.3726 28.5453C23.1744 28.3407 22.7525 28.024 22.5288 27.8524C22.4904 27.826 22.4776 27.8128 22.4648 27.7666C22.4648 27.7336 22.4712 27.727 22.5096 27.6677" fill="white"/>
<path fill-rule="evenodd" clip-rule="evenodd" d="M50.5376 31.2244C50.5376 31.2244 50.5632 31.1452 50.5376 31.1122C50.3842 30.9538 49.9559 30.5183 49.8088 30.3665C49.7769 30.3335 49.7385 30.3335 49.7066 30.3665C49.5595 30.5183 49.1184 30.967 48.9714 31.1254C48.9522 31.1518 48.9522 31.198 48.9714 31.231C49.1248 31.3893 49.5531 31.8314 49.7066 31.9832C49.7385 32.0162 49.7769 32.0162 49.8088 31.9832C49.9559 31.8314 50.3842 31.3893 50.5376 31.231" fill="white"/>
<path fill-rule="evenodd" clip-rule="evenodd" d="M15.496 22.0984C15.496 22.0984 15.5599 22.039 15.5919 22.0654C15.6175 22.0852 15.6047 22.1709 15.6047 22.1709C15.5152 22.8572 15.2083 25.3449 15.0485 28.5782C15.0293 29.1061 15.0038 29.6406 14.991 30.1685V30.3467L15.0805 30.2081C15.4896 29.6208 16.2184 29.2909 17.0814 29.2843C17.6247 29.2843 18.9288 29.4823 19.2292 31.2771C19.3251 31.9106 19.1973 33.3755 17.9763 34.4313C17.5991 34.7546 16.5699 35.2825 15.4193 35.3023C14.4348 35.3221 13.4248 35.2561 12.7856 34.682C12.4212 34.3587 12.1207 33.9166 12.044 32.6826C12.044 32.5836 12.0312 32.4583 12.0312 32.3329C12.0312 32.1877 12.0313 32.1217 12.044 32.003C12.044 31.9304 12.0568 31.904 12.0888 31.904C12.1016 31.904 12.1271 31.9634 12.1399 32.0096C12.1591 32.0689 12.1847 32.1415 12.2294 32.2141C12.7728 33.3755 14.6522 33.547 15.2914 33.5338C16.6147 33.5074 17.1581 33.0785 17.5544 32.4517C17.7845 32.0953 17.874 31.6598 17.7973 31.2705C17.695 30.6964 17.3051 30.4127 16.6467 30.4127C15.7006 30.4127 14.9782 31.2309 14.9782 32.3065V32.4517L14.9654 32.775C14.9654 32.8608 14.959 32.8806 14.9335 32.8872C14.9015 32.8872 14.8631 32.874 14.8184 32.8542L13.6358 32.1085C13.6038 32.0953 13.5271 32.0359 13.4951 31.9898C13.4568 31.937 13.4568 31.8842 13.4568 31.805C13.4696 30.67 13.4824 29.3833 13.5207 28.565C13.5974 26.9418 13.7189 25.3449 13.8915 23.8008C13.9107 23.6952 13.9298 23.5896 13.9554 23.5303C13.981 23.4841 14.0577 23.3917 14.1088 23.3521L15.496 22.1049" fill="white"/>
<path fill-rule="evenodd" clip-rule="evenodd" d="M12.5294 31.6722C12.7403 31.3555 13.0472 30.7484 12.6316 29.818C12.2225 28.8876 11.3531 28.4059 10.0746 28.5247C9.78697 27.2247 8.87923 23.3447 8.87284 23.2721C8.85366 23.1995 8.78334 23.0214 8.68106 22.962C8.57239 22.896 8.41257 22.8828 8.32308 22.8828C8.18244 22.8828 7.77971 22.9026 7.56876 23.094C7.34502 23.2787 7.24913 23.4767 7.12128 23.8C6.89754 24.3543 6.51399 25.2385 6.01537 26.3471C5.68296 27.0796 5.3058 27.9242 4.8775 28.8744C4.34692 30.049 2.98531 32.7874 2.84468 33.058C2.74879 33.2427 2.62094 33.3879 2.42277 33.5133C2.23739 33.6386 1.75155 33.6782 1.48946 33.5397C1.08034 33.3417 0.920525 33.1107 0.824637 32.7874C0.767104 32.5961 0.779889 32.3387 0.786282 32.3057C0.811852 31.8174 1.16983 31.4677 1.2018 31.4413C1.23376 31.4149 1.25294 31.3951 1.25294 31.3687C1.25294 31.3423 1.21458 31.3423 1.17623 31.3489C0.645646 31.5139 0.0703179 32.0814 0.00639253 32.8006C0.00639253 32.8534 0 32.8996 0 32.9458C0 33.6518 0.434692 34.4107 1.08673 34.7868C1.45111 34.998 2.87025 35.5984 3.70767 34.6878C3.99533 34.3777 4.30218 33.8432 4.71769 32.9722C5.1396 32.1077 6.12405 29.9962 6.28386 29.6332C6.45646 29.2769 7.40255 27.2247 7.88199 26.2217L7.95231 26.0832L8.49568 28.9008C7.33224 29.3627 6.82723 30.049 6.60988 31.0322C6.36057 32.088 7.30667 33.599 9.69747 34.767C9.90843 34.8858 10.9632 35.2685 11.1486 35.2949C11.513 35.3411 11.5577 35.1695 11.5705 35.0771C11.6024 34.9518 11.5193 34.6284 11.4682 34.3909C11.3915 34.0742 10.7075 31.2631 10.4454 30.0754C11.1358 30.0292 11.6983 30.1677 12.0371 30.623C12.3248 30.9992 12.3823 31.3885 12.3887 31.626C12.3887 31.7646 12.3887 31.7844 12.4079 31.791C12.4335 31.8042 12.4654 31.7778 12.5358 31.6722M9.25 32.7082H9.26278C9.19886 32.6818 8.4765 32.2793 8.11213 31.857C7.84364 31.5337 7.63908 31.2367 8.10573 30.7814C8.25276 30.656 8.4765 30.5307 8.80252 30.4053C8.96233 31.2301 9.25639 32.7082 9.25639 32.7082" fill="white"/>
<path fill-rule="evenodd" clip-rule="evenodd" d="M86.327 16.2054C87.337 16.7465 87.1772 18.2246 87.5288 19.5245C87.8804 20.8179 88.916 20.9301 88.916 20.9301C88.916 20.9301 91.0319 16.7069 89.2292 13.2822C87.4201 9.86409 84.4604 11.0519 83.6996 11.428C82.6896 11.9229 78.8413 14.4964 76.9044 19.9139C74.993 25.272 77.7482 27.1064 79.455 27.4165C81.1554 27.7267 83.7764 25.9318 83.8595 25.0212C83.9042 24.5395 83.559 24.236 83.0476 24.1172C82.5362 23.9984 81.149 24.302 80.2732 23.2198C79.1865 21.8803 81.0531 18.9175 82.0887 17.8749C83.1691 16.7861 84.7608 15.374 86.3206 16.2186M104.207 19.8941V19.8347C104.085 18.7129 103.785 17.6109 103.542 17.5911C102.532 17.5317 101.132 25.041 100.339 29.218C100.256 29.6469 100.212 30.0692 99.9686 30.5113C99.7769 30.8677 99.6746 31.0128 99.5531 31.1514C99.4125 31.3164 99.1824 31.4813 99.2399 31.1646C101.081 21.0488 102.264 15.6247 103.338 13.4406C103.453 13.203 103.574 13.0644 103.702 13.0051C103.497 12.5234 103.28 12.0482 103.031 11.5863C97.2646 0.751329 81.9353 -1.93433 73.3757 2.96848C69.6553 5.10645 69.9941 15.2288 74.9674 25.5095C74.4944 22.6325 75.14 20.0722 76.5208 17.1094C78.3874 13.104 84.3261 7.317 88.8009 9.09864C92.6172 10.6163 91.1469 16.8455 91.1469 16.8455C91.1469 16.8455 93.7998 13.1766 95.9158 13.0578C97.0345 12.9985 98.9394 13.8497 96.6445 17.7297C93.9533 22.2828 89.4657 24.3152 87.8868 23.365C86.506 22.5335 86.4804 20.9037 86.3909 20.4747C86.3014 20.0392 86.0777 18.5941 84.7864 18.482C83.5015 18.3764 81.1746 20.2306 81.4687 21.0554C81.7244 21.7747 83.4184 21.2006 84.2047 21.7153C84.9973 22.23 85.2914 22.9888 85.0101 24.335C84.1663 28.3536 80.9445 30.7621 78.6943 30.1946C78.1637 30.0626 77.6395 29.8449 77.1729 29.5545C77.8697 30.7027 78.592 31.7981 79.3335 32.8209L79.9984 31.6397C80.0175 31.6001 80.0559 31.5803 80.1007 31.5803C81.4175 31.6331 82.9901 31.0986 83.7188 30.4783C83.1435 32.4315 82.3764 33.6919 79.781 33.4279C79.8066 33.4609 79.8322 33.5005 79.8641 33.5401C80.35 33.7909 80.9189 34.0482 81.5901 34.3122C85.4512 35.8364 88.8968 33.8107 89.5041 33.4015C89.9835 33.0716 91.9396 31.8772 92.7643 30.2606C92.4446 30.3134 92.1186 30.3266 91.7798 30.3134C91.5305 30.3002 91.294 30.2738 91.2173 30.2738C90.8337 30.2606 88.8009 29.9306 90.1178 26.7567C90.3543 26.1892 91.2428 23.9918 92.5086 24.4801C92.8857 24.6253 93.8318 24.9882 94.145 26.5257C94.1962 26.7831 94.2345 27.0404 94.2601 27.2978C95.4619 26.5257 96.4016 25.2984 96.6317 23.9325C96.8555 22.6325 96.5678 21.966 96.2162 21.9001C95.7368 21.8143 94.8738 24.2822 94.7395 24.2096C94.6053 24.137 94.7395 23.7939 94.8482 23.4244C95.6729 20.5275 96.8874 19.4322 97.2966 19.4256C97.7057 19.4256 98.2491 20.7585 98.2554 22.5335C98.2618 25.3248 96.6701 28.5581 94.1898 29.7921C93.9724 31.092 93.4866 32.2336 92.8857 33.0188C91.2109 35.2096 87.6374 37.4795 83.0732 36.4105C82.6768 36.3181 82.3125 36.2126 81.9609 36.0938C82.3636 36.5425 82.7663 36.978 83.1755 37.3871C83.3353 37.4267 83.6229 37.4861 84.1855 37.5851C86.1224 37.9216 90.252 38.014 94.4902 36.4237C99.3805 34.5827 100.915 31.7915 102.014 29.8713C104.348 25.7933 104.411 21.2072 104.213 19.8677M95.9797 10.7813C95.7304 11.0387 95.0272 11.7645 94.7843 12.0219C94.7332 12.0746 94.6692 12.0746 94.6181 12.0219C94.3624 11.7645 93.6656 11.0453 93.4099 10.7813C93.3715 10.7285 93.3715 10.6559 93.4099 10.6097C93.6528 10.3524 94.3752 9.61994 94.6181 9.36259C94.6628 9.3164 94.7332 9.3164 94.7843 9.36919C95.0272 9.62654 95.724 10.3326 95.9797 10.5965C96.0245 10.6493 96.0245 10.7351 95.9797 10.7747M88.7689 26.1562C88.5196 26.4135 87.8164 27.1394 87.5735 27.3968C87.5224 27.4495 87.4585 27.4495 87.4073 27.3968C87.1516 27.1394 86.4548 26.4201 86.1991 26.1562C86.1608 26.1034 86.1608 26.0308 86.1991 25.9846C86.442 25.7273 87.1644 24.9948 87.4073 24.7375C87.4521 24.6979 87.5224 24.6979 87.5735 24.7507C87.8164 25.008 88.5132 25.7141 88.7689 25.978C88.8137 26.0308 88.8137 26.1166 88.7689 26.1562ZM98.3513 30.9138C98.0956 31.1712 97.3988 31.897 97.1559 32.1544C97.1048 32.2072 97.0409 32.2072 96.9897 32.1544C96.734 31.897 96.0372 31.1778 95.7815 30.9138C95.7432 30.8611 95.7432 30.7885 95.7815 30.7423C96.0245 30.4849 96.7468 29.7525 96.9897 29.4951C97.0345 29.4555 97.1048 29.4555 97.1559 29.5017C97.3988 29.7591 98.0956 30.4651 98.3513 30.7291C98.3961 30.7819 98.3961 30.8677 98.3513 30.9072M92.125 25.7603C91.4154 25.6019 90.5588 27.8982 91.4474 28.1094C91.5433 28.1358 91.6711 28.1424 91.8246 28.1358C92.2592 28.1094 92.6939 28.0104 93.1222 27.8587C93.0519 26.4993 92.7003 25.8857 92.125 25.7603ZM95.0848 38.4825C92.8665 39.3337 89.2612 40.0068 85.9754 39.1094C85.253 38.9114 84.7288 38.7003 84.3261 38.5221C88.1744 42.0326 91.9077 43.5437 94.2665 42.191C97.303 40.4555 100.013 37.4531 101.995 33.8173C100.039 36.173 97.3349 37.6181 95.0848 38.4759M96.0308 15.7699C95.3788 15.0572 93.3268 16.0734 91.9908 17.6439C90.8273 19.0098 90.105 21.0092 90.105 21.0092C90.3926 20.9696 92.4574 19.9403 94.2729 18.4556C94.9825 17.8749 96.6893 16.4826 96.0308 15.7699Z" fill="white"/>
</svg>
