<svg width="193" height="46" viewBox="0 0 193 46" fill="none" xmlns="http://www.w3.org/2000/svg">
<g clip-path="url(#clip0_96_780)">
<mask id="mask0_96_780" style="mask-type:luminance" maskUnits="userSpaceOnUse" x="0" y="0" width="193" height="73">
<path d="M0.417969 73H192.418V0H0.417969V73Z" fill="white"/>
</mask>
<g mask="url(#mask0_96_780)">
<path d="M192.349 3.40574V1.87226H170.645V3.40574H174.022V32.9096L153.795 1.87226H144.399V3.40574H147.757V42.9628H141.924L127.254 0L112.123 42.9628H106.5V3.40574H109.877V1.87226H100.99L89.764 34.2899L78.001 1.87226H69.2683V3.40574H72.6273V42.9628H65.9417C64.0409 42.9628 62.3912 41.2834 62.3912 38.4236V32.1888C62.3912 27.4027 60.8372 23.3987 56.0399 22.0418C58.0783 21.4098 59.8634 20.1496 61.1387 18.4424C62.4139 16.7352 63.1137 14.6687 63.1374 12.54C63.1374 6.48172 58.5894 1.87226 49.8386 1.87226H36.6482V3.40574H40.0054V42.9628H33.2313L18.5574 0L3.43544 42.9628H0.441406V44.4909H8.90495V42.9574H5.15382L9.37655 30.9634H23.109L27.1384 42.9574H21.9761V44.4909H50.7059V42.9574H45.5201V22.8004H48.9948C54.0993 22.8004 56.6506 24.8799 56.6506 29.8282V33.4862C56.6506 42.1753 62.3894 44.5053 65.5171 44.5053H77.8185V42.9718H74.1541V7.93051L87.9517 44.9576L101.001 6.8295V42.9592H97.624V44.4909H117.581V42.9574H113.839L118.062 30.9634H131.818L135.847 42.9574H130.685V44.4909H152.659V42.9574H149.282V5.59154L175.554 45.8928V3.40574H183.479V42.9628H180.106V44.4909H192.349V42.9574H188.972V3.40574H192.349ZM9.88429 29.466L16.3566 10.7758L22.6501 29.466H9.88429ZM48.9948 21.267H45.5201V3.40574H48.4111C53.5355 3.40574 56.9705 6.69616 56.9705 12.776C56.9705 16.1277 54.3414 21.2652 48.9875 21.2652M118.573 29.4642L125.028 10.7758L131.323 29.466L118.573 29.4642Z" fill="black" fill-opacity="0.7"/>
</g>
</g>
<defs>
<clipPath id="clip0_96_780">
<rect width="192" height="46" fill="white" transform="translate(0.417969)"/>
</clipPath>
</defs>
</svg>
