<svg width="51" height="20" viewBox="0 0 51 20" fill="none" xmlns="http://www.w3.org/2000/svg">
<path d="M6.6802 0.191406H0V17.4601H6.6802C8.52125 17.4733 10.0299 15.949 10.0491 14.0486V3.65571C10.0491 1.74209 8.55321 0.191406 6.69937 0.191406M3.3369 14.0486V3.65571H5.01814C5.93227 3.65571 6.6738 4.41455 6.6802 5.35816C6.6802 5.35816 6.6802 5.36476 6.6802 5.37136V12.3066C6.69298 13.2568 5.95145 14.0354 5.03092 14.0486C5.02453 14.0486 5.01814 14.0486 5.01175 14.0486H3.3369Z" fill="white"/>
<path d="M46.9336 17.4601V1.92026C46.9336 0.976648 47.6687 0.204604 48.5829 0.191406H50.2641V15.7709C50.2641 16.7211 49.5162 17.4931 48.5957 17.4997H46.9336V17.4601Z" fill="white"/>
<path d="M32.6047 9.60785C31.8376 10.3997 30.866 10.954 29.8048 11.2047C30.3929 11.9438 30.2907 13.0326 29.5811 13.6396C28.8715 14.2467 27.8103 14.1411 27.2222 13.4087C26.9729 13.0985 26.8387 12.7092 26.8387 12.3067V11.3499H23.457V15.771C23.4826 16.7146 24.2305 17.4603 25.1447 17.4603H28.488C31.2687 17.4603 33.5189 15.1441 33.5253 12.2737C33.5253 11.2641 33.244 10.2743 32.707 9.42969L32.5792 9.56166" fill="white"/>
<path d="M26.8131 5.38456C26.8131 4.72469 27.1711 4.12421 27.74 3.82727V0.191406H23.457V6.33477H26.8067V5.38456H26.8131Z" fill="white"/>
<path d="M15.0727 7.02763V0.191406H13.4234C12.5029 0.191406 11.7486 0.956852 11.7422 1.90706V6.34796H13.4234C14.0435 6.33477 14.6444 6.57232 15.0983 7.00783" fill="white"/>
<path d="M21.7858 6.33477V1.92026C21.7794 0.96345 21.0314 0.191406 20.1045 0.191406H18.4297V7.02763C18.8836 6.59211 19.4845 6.35456 20.1045 6.36776L21.7858 6.33477Z" fill="white"/>
<path d="M35.2227 17.46H36.8911C37.818 17.46 38.566 16.6945 38.5723 15.7377C38.5723 15.7377 38.5723 15.7377 38.5723 15.7311V11.3496H35.2227V17.46Z" fill="white"/>
<path d="M38.5468 6.33477V4.42775V1.92026C38.5468 1.27359 38.7897 0.659912 39.218 0.191406H38.5468C36.7057 0.211202 35.2227 1.75529 35.2227 3.65571V7.02763C35.6765 6.59211 36.271 6.35456 36.8911 6.36776L38.5468 6.33477Z" fill="white"/>
<path d="M41.9535 11.3497H41.9023V15.7708C41.9023 16.7276 42.6503 17.4997 43.5772 17.5063H45.252V9.58789C44.5041 10.7097 43.2767 11.3893 41.9535 11.4091" fill="white"/>
<path d="M28.4825 0.191406V3.65571C29.4094 3.65571 30.1637 4.44095 30.1573 5.39776C30.1573 6.29517 29.4861 7.04082 28.6231 7.12001H20.1018C19.1813 7.12001 18.4334 7.88545 18.427 8.83566C18.427 8.83566 18.427 8.83566 18.427 8.84226V14.0486H16.7266C15.7997 14.0486 15.0517 13.2766 15.0517 12.3198V8.84226C15.0517 7.89205 14.3038 7.12001 13.3833 7.12001H11.7148V14.0486C11.734 15.949 13.2299 17.4733 15.0709 17.4733H18.427C20.2808 17.4733 21.7831 15.9226 21.7831 14.009V10.5447H28.4825C31.2568 10.3534 33.3536 7.87226 33.1682 5.00184C33.002 2.50094 31.1354 0.481748 28.719 0.191406H28.4825Z" fill="white"/>
<path d="M27.5781 11.3232V12.28C27.5781 12.7815 27.9745 13.1907 28.4603 13.1907C28.9589 13.1973 29.3808 12.7947 29.4064 12.28C29.432 11.7785 29.0612 11.3496 28.5754 11.3232H27.5781Z" fill="white"/>
<path d="M17.0234 18.1729V19.0769C17.0234 19.5784 17.4134 19.9875 17.8992 19.9941C18.385 20.0007 18.7814 19.5916 18.7878 19.0901C18.7942 18.5886 18.3978 18.1795 17.912 18.1729C17.912 18.1729 17.9056 18.1729 17.8992 18.1729H17.0234Z" fill="white"/>
<path d="M14.543 18.1729V19.0769C14.543 19.5784 14.9329 19.9875 15.4187 19.9941C15.9046 20.0007 16.3009 19.5916 16.3073 19.0901C16.3137 18.5886 15.9174 18.1795 15.4315 18.1729H14.5494H14.543Z" fill="white"/>
<path d="M35.2227 8.84226C35.2227 7.89205 35.9706 7.12001 36.8911 7.12001H40.2728C41.1997 7.18599 42.0051 6.46674 42.0755 5.51653C42.1394 4.55972 41.4426 3.72829 40.5157 3.65571H39.365V1.92026C39.365 0.989845 40.0746 0.2244 40.9759 0.191406H41.9029C43.7503 0.191406 45.2462 1.73549 45.2525 3.64251V7.12001C45.2525 9.02702 43.7503 10.5711 41.9029 10.5777H35.2227V8.84226Z" fill="white"/>
</svg>
