<svg width="146" height="40" viewBox="0 0 146 40" fill="none" xmlns="http://www.w3.org/2000/svg">
<mask id="mask0_96_856" style="mask-type:luminance" maskUnits="userSpaceOnUse" x="0" y="0" width="146" height="40">
<path d="M145.418 0.5H0.417969V39.5H145.418V0.5Z" fill="white"/>
</mask>
<g mask="url(#mask0_96_856)">
<path d="M20.0898 39.3398V32.8975H21.445C22.3768 32.8975 23.0544 32.9616 23.491 33.0962C23.9275 33.2308 24.2989 33.4424 24.6182 33.7308C24.9309 34.0193 25.1785 34.3783 25.3479 34.795C25.5173 35.2116 25.602 35.7052 25.602 36.2629C25.602 36.8206 25.4717 37.3462 25.2046 37.8398C24.9374 38.3334 24.5791 38.7052 24.1295 38.9552C23.6734 39.2052 23.0218 39.3334 22.1748 39.3334H20.0898V39.3398ZM20.7218 38.7308H21.4776C22.266 38.7308 22.8394 38.6924 23.1978 38.6155C23.5561 38.5385 23.8624 38.3847 24.1295 38.1539C24.3966 37.9232 24.5986 37.6411 24.742 37.3142C24.8788 36.9873 24.9505 36.6091 24.9505 36.186C24.9505 35.7629 24.8723 35.3719 24.7094 35.0129C24.5465 34.6539 24.3185 34.3591 24.0187 34.1219C23.719 33.8911 23.3672 33.7309 22.9632 33.6539C22.5592 33.5706 21.9663 33.5321 21.1779 33.5321H20.7153V38.7373L20.7218 38.7308Z" fill="black" fill-opacity="0.7"/>
<path d="M30.3438 32.8975H34.1032V33.5385H31.0019V35.545H34.0773V36.1732H31.0019V38.7052H34.0773V39.3398H30.3438V32.8975Z" fill="black" fill-opacity="0.7"/>
<path d="M38.1953 32.8975H38.9056L41.0753 38.0385L43.2841 32.8975H43.9943L41.1404 39.5001H41.0036L38.1953 32.8975Z" fill="black" fill-opacity="0.7"/>
<path d="M48.5625 32.8975H52.3156V33.5385H49.2206V35.545H52.2895V36.1732H49.2206V38.7052H52.2895V39.3398H48.5625V32.8975Z" fill="black" fill-opacity="0.7"/>
<path d="M56.9023 32.8975H57.5669V38.718H60.0884V39.3398H56.9023V32.8975Z" fill="black" fill-opacity="0.7"/>
<path d="M64.2995 36.1475C64.2995 35.5257 64.4494 34.9488 64.7556 34.4232C65.0618 33.8975 65.4789 33.4873 66.0066 33.186C66.5344 32.8847 67.1143 32.7373 67.7333 32.7373C68.3523 32.7373 68.9387 32.8847 69.473 33.1796C70.0138 33.4744 70.4308 33.8847 70.737 34.4103C71.0432 34.936 71.1996 35.5001 71.1996 36.1155C71.1996 36.7309 71.0498 37.295 70.7435 37.8206C70.4373 38.3462 70.0203 38.7565 69.4925 39.0514C68.9582 39.3526 68.3848 39.5001 67.7593 39.5001C67.1338 39.5001 66.5605 39.3526 66.0197 39.0578C65.4854 38.7629 65.0618 38.3526 64.7556 37.8334C64.4494 37.3142 64.293 36.7501 64.293 36.1475M70.509 36.1219C70.509 35.3526 70.2353 34.6988 69.6945 34.1667C69.1537 33.6347 68.4956 33.3655 67.7268 33.3655C66.9579 33.3655 66.2868 33.6347 65.759 34.1667C65.2313 34.7052 64.9706 35.3526 64.9706 36.1219C64.9706 36.8911 65.2378 37.5385 65.7851 38.0706C66.3259 38.6026 66.9775 38.8719 67.7463 38.8719C68.5152 38.8719 69.1667 38.6091 69.701 38.0898C70.2418 37.5706 70.509 36.9103 70.509 36.1155" fill="black" fill-opacity="0.7"/>
<path d="M75.9674 32.8976H77.2705C78.0394 32.8976 78.5476 32.9297 78.7822 32.9874C79.0167 33.0451 79.2383 33.1541 79.4337 33.3015C79.6292 33.4489 79.7856 33.6348 79.8963 33.8592C80.0071 34.0835 80.0592 34.3335 80.0592 34.6092C80.0592 35.0515 79.9354 35.4105 79.6944 35.6925C79.4533 35.9746 79.147 36.1541 78.7756 36.2246C78.4108 36.3015 77.8439 36.3335 77.0816 36.3335H76.6189V39.3271H75.9609V32.8848L75.9674 32.8976ZM76.6255 33.5258V35.7246H77.7266C78.3912 35.7374 78.8278 35.6284 79.0493 35.4041C79.2708 35.1797 79.3751 34.9169 79.3751 34.6092C79.3751 33.8848 78.8408 33.5258 77.7787 33.5258H76.6189H76.6255Z" fill="black" fill-opacity="0.7"/>
<path d="M84.5352 39.3398L85.4669 32.8975H85.5647L88.2296 38.1796L90.8684 32.8975H90.9727L91.9109 39.3398H91.2659L90.6273 34.7309L88.3078 39.3398H88.1449L85.8057 34.6924L85.1672 39.3398H84.5352Z" fill="black" fill-opacity="0.7"/>
<path d="M96.6836 32.8975H100.437V33.5385H97.3352V35.545H100.411V36.1732H97.3352V38.7052H100.411V39.3398H96.6836V32.8975Z" fill="black" fill-opacity="0.7"/>
<path d="M105.027 39.3398V32.8975H105.177L109.523 37.8334V32.8975H110.175V39.3398H110.025L105.705 34.468V39.3398H105.027Z" fill="black" fill-opacity="0.7"/>
<path d="M114.586 33.5257V32.8975H118.176V33.5257H116.717V39.3398H116.052V33.5257H114.586Z" fill="black" fill-opacity="0.7"/>
<path d="M121.905 38.1347L122.459 37.8142C122.85 38.5193 123.299 38.8719 123.814 38.8719C124.146 38.8719 124.433 38.7693 124.674 38.5578C124.909 38.3462 125.033 38.0898 125.033 37.7757C125.033 37.5321 124.935 37.2821 124.733 37.0321C124.531 36.7821 124.198 36.4808 123.736 36.1411C123.273 35.795 122.961 35.5385 122.798 35.3719C122.635 35.1988 122.517 35.0193 122.439 34.827C122.361 34.6347 122.329 34.436 122.329 34.2373C122.329 33.8206 122.478 33.4616 122.778 33.1732C123.078 32.8847 123.456 32.7373 123.912 32.7373C124.27 32.7373 124.583 32.827 124.85 33.0001C125.117 33.1796 125.378 33.436 125.625 33.7821L125.098 34.186C124.928 33.9616 124.752 33.7693 124.57 33.6219C124.387 33.4744 124.166 33.3975 123.899 33.3975C123.632 33.3975 123.417 33.4744 123.254 33.6283C123.084 33.7821 123.006 33.9808 123.006 34.218C123.006 34.4552 123.078 34.6667 123.228 34.8398C123.378 35.0193 123.716 35.295 124.238 35.6796C124.765 36.0642 125.143 36.4167 125.384 36.7373C125.625 37.0578 125.743 37.4039 125.743 37.7565C125.743 38.2244 125.56 38.6283 125.189 38.9744C124.824 39.3206 124.394 39.4873 123.905 39.4873C123.045 39.4873 122.381 39.0321 121.898 38.1219" fill="black" fill-opacity="0.7"/>
<path d="M62.154 2.99424V21.5904C62.154 22.9493 62.343 24.3083 62.7144 25.4686H56.9936C57.365 24.3083 57.554 22.9557 57.554 21.5904V2.99424H53.8921C51.5986 3.04552 49.3247 3.32757 47.0898 3.82757L47.611 0.583984H72.097L72.6182 3.82757C70.3833 3.32757 68.1029 3.05193 65.8159 2.99424H62.154Z" fill="black" fill-opacity="0.7"/>
<path d="M145.403 22.2314L144.875 24.4109L144.621 25.4686H120.324L125.022 19.5391L138.079 2.99424H128.703C126.123 3.01988 123.55 3.30193 121.028 3.8468L121.823 0.583984H145.41L130.697 19.6224L128.86 21.9942L127.928 23.1801H127.941L137.037 23.0968C140.021 23.0711 142.465 22.7827 145.397 22.2314" fill="black" fill-opacity="0.7"/>
<path d="M83.3573 24.8207C83.4355 25.0835 83.5202 25.3463 83.5983 25.4617H77.832C77.9102 25.3399 77.9949 25.0835 78.073 24.8207C78.1577 24.5707 78.2229 24.3143 78.2685 24.0579L78.3988 22.4553V3.74381L78.2685 2.14125C78.2229 1.88484 78.1577 1.62843 78.073 1.37843C77.9949 1.11561 77.9102 0.852789 77.832 0.577148H83.5983C83.5202 0.852789 83.4355 1.11561 83.3573 1.37843C83.2726 1.62843 83.2074 1.88484 83.1618 2.14125L83.0315 3.74381V22.4553L83.1618 24.0579C83.2074 24.3143 83.2726 24.5707 83.3573 24.8207Z" fill="black" fill-opacity="0.7"/>
<path d="M46.1208 19.8079L43.1757 13.0964L42.0419 10.4298L37.6634 0.519531H37.3507H33.0699L34.3404 3.62209C34.803 4.66696 34.8291 5.89132 34.4186 6.96184L30.0922 19.2695L22.3972 0.532352H20.2209H20.0711H17.4387L18.9243 3.80799C19.3934 4.84004 19.4325 6.0644 19.0286 7.13491C18.996 7.22466 18.9634 7.30799 18.9373 7.3785C17.8557 10.2631 16.5852 13.4618 15.1257 16.981L13.7313 20.2567C13.6271 20.5515 13.5098 20.84 13.3729 21.1221C13.1384 21.6413 12.9625 22.0323 12.8387 22.2951C12.5454 22.981 12.2132 23.6349 11.8352 24.2695C11.529 24.7759 11.2879 25.1733 11.125 25.481H16.2073L15.7186 24.6733C15.6599 24.3272 15.6534 23.9682 15.699 23.6156C15.9206 22.449 16.2659 21.3272 16.7285 20.2631C18.0447 16.7246 19.3609 13.1926 20.7031 9.67337C20.9376 9.05158 21.1787 8.43619 21.4133 7.82081L28.0202 25.4874H30.5874L36.4515 8.21825C36.7642 8.93619 37.077 9.66055 37.3963 10.3785C38.2368 12.2951 39.0773 14.2182 39.9178 16.1349C40.5303 17.5195 41.1363 18.9169 41.7553 20.3015L41.853 20.5387L41.9247 20.7887C41.9833 20.8977 42.0354 21.0131 42.0876 21.1349C42.2765 21.5387 42.459 21.981 42.6414 22.449C42.8434 22.9297 43.0258 23.4169 43.1887 23.9169C43.306 24.2951 43.1496 24.7503 43.0063 25.481H49.3786C48.7661 24.6285 48.2058 23.7695 47.691 22.8656C47.1893 21.9874 46.6485 20.9682 46.1077 19.8208" fill="black" fill-opacity="0.7"/>
<path d="M5.71522 2.12215C5.76083 1.86574 5.82599 1.60933 5.91069 1.35933C5.98888 1.0965 6.06707 0.840094 6.15177 0.564453H0.417969C0.496157 0.840094 0.574345 1.0965 0.659049 1.35933C0.743753 1.60933 0.80891 1.85933 0.85452 2.12215L0.984833 3.71189V22.3145L0.85452 23.9042C0.80891 24.1606 0.743753 24.417 0.659049 24.667C0.580861 24.9299 0.496157 25.1863 0.417969 25.4619H6.14526C6.06707 25.1863 5.98888 24.9299 5.90418 24.667C5.81947 24.417 5.75431 24.1606 5.7087 23.9042L5.57839 22.3145V3.71189L5.7087 2.12215H5.71522Z" fill="black" fill-opacity="0.7"/>
<path d="M108.39 25.4427L115.785 25.4299L115.492 25.0774C114.873 24.3209 114.293 23.5261 113.779 22.712C112.423 20.5645 111.368 18.2184 110.351 15.9492C110.143 15.4748 109.928 15.0068 109.713 14.5389C109.152 13.3081 108.592 12.0709 108.032 10.8402C107.471 9.6094 106.918 8.37222 106.351 7.14145C106.051 6.49402 105.758 5.84658 105.465 5.19914C105.191 4.59017 104.911 3.9812 104.637 3.37222L103.432 0.506836H98.1213L98.4797 0.878631C98.812 1.22478 98.8381 1.31453 98.8837 1.45555V1.4812C98.9358 1.66709 98.9553 1.85299 98.9553 2.03889C98.9423 2.37222 98.8837 2.70556 98.7859 3.02607L98.7664 3.09017C98.7403 3.17991 98.7077 3.27607 98.6817 3.35299C95.8995 9.64786 90.6022 21.6351 90.4459 21.9363C90.1005 22.6222 89.7096 23.2889 89.2796 23.9043C88.9603 24.3658 88.6997 24.7248 88.5107 24.9876L88.1914 25.4363H94.1793L93.3714 24.353C93.3128 24.0389 93.3062 23.7184 93.3584 23.4107C93.3844 23.2889 93.7363 22.353 95.7627 17.494C96.5576 17.2761 97.3655 17.1479 98.1539 17.1158H103.699C104.494 17.1479 105.302 17.2761 106.103 17.494C106.409 18.1222 108.279 21.9427 109.113 24.0389C109.152 24.4171 109.022 24.7953 108.755 25.071L108.397 25.4427H108.39ZM100.773 5.59017L104.898 14.6351H96.9681C98.5253 10.9363 100.232 6.87863 100.773 5.59017Z" fill="black" fill-opacity="0.7"/>
</g>
</svg>
