<svg width="176" height="41" viewBox="0 0 176 41" fill="none" xmlns="http://www.w3.org/2000/svg">
<g clip-path="url(#clip0_84_3066)">
<path d="M56.2165 26.7946V8.9356L49.1723 24.108H45.2723L38.2281 8.9356V26.7946H32.8125V0.308594H39.5157L47.2414 16.5027L54.9289 0.308594H61.5944V26.7946H56.2165Z" fill="white"/>
<path d="M78.8664 6.55154L74.6625 16.8434H83.0321L78.8664 6.55154ZM72.6934 21.6486L70.61 26.7946H64.4375L75.9508 0.308594H82.1232L93.4468 26.7946H87.0457L84.9635 21.6486H72.6934Z" fill="white"/>
<mask id="mask0_84_3066" style="mask-type:luminance" maskUnits="userSpaceOnUse" x="-153" y="-166" width="482" height="373">
<path d="M-152.75 -165.366H328.742V206.367H-152.75V-165.366Z" fill="white"/>
</mask>
<g mask="url(#mask0_84_3066)">
<path d="M145.818 2.91942L143.507 7.87648C140.705 6.21157 137.372 5.15224 135.252 5.15224C133.244 5.15224 131.882 5.87082 131.882 7.30855C131.882 12.1897 146.007 9.46545 145.969 19.0005C145.969 24.1841 141.463 26.9843 135.593 26.9843C131.238 26.9843 126.882 25.3194 123.891 22.7841L126.276 17.9029C129.003 20.3247 132.866 21.876 135.668 21.876C138.13 21.876 139.607 20.9679 139.607 19.3407C139.607 14.3466 125.481 17.2597 125.481 7.87648C125.481 3.07067 129.609 0.0439453 135.744 0.0439453C139.455 0.0439453 143.167 1.1792 145.818 2.91942Z" fill="white"/>
<path d="M161.413 6.55154L157.209 16.8434H165.579L161.413 6.55154ZM155.24 21.6486L153.158 26.7946H146.984L158.498 0.308594H164.67L175.994 26.7946H169.593L167.51 21.6486H155.24Z" fill="white"/>
<path d="M101.589 0.308594H96.2109V26.7946H101.929V9.80541L114.767 26.7946H120.221V24.8521L101.589 0.308594Z" fill="white"/>
<path d="M120.22 20.9159V0.30957H114.539V13.4326L120.22 20.9159Z" fill="white"/>
<path d="M38.6438 36.6469C38.6438 36.1786 38.2736 35.8555 37.6425 35.8555H34.3013V37.4718H37.6504C38.2821 37.4718 38.6438 37.1578 38.6438 36.6469ZM38.6019 40.8332L37.1039 38.655H34.3013V40.8332H32.8203V34.6729H37.8103C39.1989 34.6729 40.1077 35.4898 40.1077 36.6894C40.1077 37.6595 39.6366 38.2887 38.7192 38.5445L40.2676 40.8332H38.6019Z" fill="white"/>
<path d="M47.9844 40.8332V34.6729H54.5903V35.8561H49.4653V37.1152H53.0248V38.2979H49.4653V39.6506H54.8262V40.8332H47.9844Z" fill="white"/>
<path d="M65.9292 35.7966L64.5911 38.3234H67.2672L65.9292 35.7966ZM68.5883 40.8332L67.8898 39.506H63.985L63.287 40.8332H61.7891L65.0288 34.6729H66.8551L70.0863 40.8332H68.5883Z" fill="white"/>
<path d="M77.2969 40.8332V34.6729H78.7778V39.6506H83.4651V40.8332H77.2969Z" fill="white"/>
<path d="M99.8281 40.8332V34.6729H106.434V35.8561H101.309V37.1152H104.869V38.2979H101.309V39.6506H106.67V40.8332H99.8281Z" fill="white"/>
<path d="M117.403 35.7198C116.133 35.7198 115.476 35.9664 115.476 36.3661C115.476 36.5786 115.653 36.7232 116.006 36.8089C116.587 36.9534 117.37 36.9109 118.312 36.9959C120.222 37.1745 121.14 37.6422 121.14 38.8503C121.14 40.1866 119.894 40.9775 117.58 40.9775C116.057 40.9775 114.795 40.6374 113.625 39.8204L114.433 38.8169C115.476 39.4632 116.512 39.7694 117.647 39.7694C118.876 39.7694 119.566 39.4122 119.566 38.9105C119.566 38.3656 118.775 38.3656 117.479 38.3061C115.106 38.2041 113.936 37.7279 113.936 36.4936C113.936 35.2855 115.131 34.5195 117.336 34.5195C118.825 34.5195 120.028 34.8263 120.921 35.4221L120.08 36.4092C119.221 35.9409 118.354 35.7198 117.403 35.7198Z" fill="white"/>
<path d="M132.166 35.8555V40.8326H130.685V35.8555H127.781V34.6729H135.069V35.8555H132.166Z" fill="white"/>
<path d="M144.757 35.7966L143.419 38.3234H146.095L144.757 35.7966ZM147.416 40.8332L146.718 39.506H142.813L142.115 40.8332H140.617L143.857 34.6729H145.683L148.914 40.8332H147.416Z" fill="white"/>
<path d="M158.853 35.8555V40.8326H157.372V35.8555H154.469V34.6729H161.756V35.8555H158.853Z" fill="white"/>
<path d="M169.156 40.8332V34.6729H175.762V35.8561H170.637V37.1152H174.197V38.2979H170.637V39.6506H175.998V40.8332H169.156Z" fill="white"/>
<path d="M19.4081 10.748L25.6001 26.7951H21.8649L16.1562 12.0005L19.4081 10.748Z" fill="white"/>
<path d="M18.0184 26.7943H14.1749L9.46094 14.5775L12.829 13.3457L18.0184 26.7943Z" fill="white"/>
<path d="M10.328 26.7951H6.59277L2.85938 17.1197L6.11128 15.8672L10.328 26.7951Z" fill="white"/>
<path d="M19.1091 0.0224609L22.75 9.45915L19.4039 10.7481L15.2656 0.0224609H19.1091Z" fill="white"/>
<path d="M16.1531 12.0005L12.8289 13.3466L7.6875 0.0224609H11.5309L16.1531 12.0005Z" fill="white"/>
<path d="M6.1141 15.8673L9.46023 14.5784L3.84342 0.0224609H0L6.1141 15.8673Z" fill="white"/>
</g>
</g>
<defs>
<clipPath id="clip0_84_3066">
<rect width="176" height="41" fill="white"/>
</clipPath>
</defs>
</svg>
