<svg width="1418" height="238" viewBox="0 0 1418 238" fill="none" xmlns="http://www.w3.org/2000/svg">
<g clip-path="url(#clip0_101_5337)">
<path d="M234.239 268.1V89.1135L163.737 241.173H124.702L54.1994 89.1135V268.1H0V2.65625H67.0873L144.414 164.955L221.352 2.65625H288.061V268.1H234.239Z" fill="white" fill-opacity="0.1"/>
<path d="M399.09 216.531L378.24 268.107H316.461L431.684 2.65625H493.463L606.793 268.1H542.731L521.887 216.524H399.084L399.09 216.531ZM460.869 65.2196L418.79 168.365H502.558L460.869 65.2196Z" fill="white" fill-opacity="0.1"/>
<path d="M1130.94 28.8149L1107.81 78.4967C1079.76 61.8082 1046.41 51.1922 1025.19 51.1922C1005.1 51.1922 991.454 58.3975 991.454 72.808C991.454 121.728 1132.83 94.4239 1132.45 189.987C1132.45 241.934 1087.34 270 1028.6 270C985.007 270 941.418 253.311 911.473 227.907L935.349 178.987C962.64 203.258 1001.3 218.808 1029.35 218.808C1053.99 218.808 1068.77 209.702 1068.77 193.397C1068.77 143.344 927.392 172.543 927.392 78.4967C927.392 30.3315 968.71 0 1030.11 0C1067.25 0 1104.41 11.3712 1130.94 28.8149Z" fill="white" fill-opacity="0.1"/>
<path d="M1225.29 216.531L1204.45 268.107H1142.66L1257.89 2.65625H1319.67L1433 268.1H1368.94L1348.09 216.524H1225.29V216.531ZM1287.07 65.2196L1244.99 168.365H1328.76L1287.07 65.2196Z" fill="white" fill-opacity="0.1"/>
<path d="M688.258 2.65625H634.43V268.1H691.661V97.8353L820.149 268.1H874.732V248.632L688.258 2.65625Z" fill="white" fill-opacity="0.1"/>
<path d="M874.733 209.177V2.65625H817.879V134.177L874.733 209.177Z" fill="white" fill-opacity="0.1"/>
</g>
<defs>
<clipPath id="clip0_101_5337">
<rect width="1433" height="270" fill="white"/>
</clipPath>
</defs>
</svg>
