<svg width="126" height="46" viewBox="0 0 126 46" fill="none" xmlns="http://www.w3.org/2000/svg">
<g clip-path="url(#clip0_96_878)">
<mask id="mask0_96_878" style="mask-type:luminance" maskUnits="userSpaceOnUse" x="0" y="0" width="126" height="46">
<path d="M125.585 0.348633H0.417969V45.6506H125.585V0.348633Z" fill="white"/>
</mask>
<g mask="url(#mask0_96_878)">
<path d="M62.9234 12.1546C65.1784 11.3286 66.7344 9.73163 66.7344 7.19863C66.7344 3.28463 63.1554 1.59863 58.6124 1.59863H53.4414V25.9856H60.2044C65.3204 25.9856 69.7584 23.9146 69.7584 19.2116C69.7584 15.4946 66.9854 12.9446 62.9234 12.1546ZM59.8824 24.6216H57.0204V2.97163H58.8974C62.2614 2.97163 63.3874 4.60663 63.3874 7.06563C63.3874 7.47463 63.6614 11.4976 60.3554 12.2296C61.7182 12.5577 62.9819 13.2095 64.0394 14.1296C64.6966 14.7235 65.2123 15.4571 65.5485 16.2765C65.8848 17.0959 66.0331 17.9803 65.9824 18.8646C65.9824 22.2756 64.1044 24.6276 59.8824 24.6276" fill="black" fill-opacity="0.7"/>
<path d="M2.11797 25.1717C3.86691 26.0024 5.78183 26.4248 7.71797 26.4067C10.867 26.4067 16.418 25.2757 16.418 19.7487C16.418 15.8737 13.618 13.6957 9.00597 10.5677C6.87497 9.04869 3.96797 7.51669 3.96797 5.02269C3.96797 2.94869 5.88497 1.70669 8.53997 1.70669C10.4046 1.74185 12.2226 2.29591 13.79 3.30669L12.474 1.01269C11.2313 0.537097 9.90701 0.311451 8.57697 0.348687C5.05497 0.348687 0.939969 1.83769 0.939969 6.03469C0.939969 9.35369 3.55397 11.2287 7.88497 14.3347C9.89597 15.7657 13.057 18.0347 13.057 20.8147C13.057 23.4277 11.018 25.0497 7.73497 25.0497C5.03273 24.9768 2.44235 23.9551 0.417969 22.1637L2.11797 25.1717Z" fill="black" fill-opacity="0.7"/>
<path d="M33.8526 26.4066C27.3296 26.4066 22.2656 21.2066 22.2656 13.7946C22.2656 6.56762 27.3296 1.18262 33.8526 1.18262C40.3756 1.18262 45.4246 6.56762 45.4246 13.7946C45.4246 21.2016 40.3766 26.4066 33.8526 26.4066ZM41.8466 13.7946C41.8466 7.19462 38.6466 2.54262 33.8526 2.54262C29.0586 2.54262 25.8586 7.19362 25.8586 13.7946C25.8586 20.4316 29.0586 25.0466 33.8526 25.0466C38.6466 25.0466 41.8466 20.4306 41.8466 13.7946Z" fill="black" fill-opacity="0.7"/>
<path d="M118.891 18.8285H109.479L106.545 25.9855H105.145L115.366 1.06055L125.584 25.9855H121.826L118.891 18.8285ZM110.034 17.4685H118.334L114.184 7.32255L110.034 17.4685Z" fill="black" fill-opacity="0.7"/>
<path d="M94.6883 1.6084V11.6234H81.6103V1.6084H78.0312V25.9864H81.6103V12.9864H94.6883V25.9864H98.2673V1.6084H94.6883Z" fill="black" fill-opacity="0.7"/>
<path d="M39.1853 45.6503H37.7383V38.2393H41.2883C42.9693 38.2393 43.8153 39.0523 43.8153 40.3393V40.7393C43.8211 41.2073 43.663 41.6627 43.3684 42.0265C43.0738 42.3903 42.6613 42.6396 42.2023 42.7313L44.1023 45.6463H42.5023L40.7103 42.8533H39.1853V45.6503ZM39.1853 41.7443H40.9673C41.9123 41.7443 42.3673 41.3443 42.3673 40.7103V40.4103C42.3673 39.7423 41.9773 39.3863 41.0203 39.3863H39.1853V41.7443Z" fill="black" fill-opacity="0.7"/>
<path d="M53.0196 38.2402V39.4402H48.8466V41.3182H52.0966V42.4522H48.8466V44.4482H53.0196V45.6482H47.4336V38.2402H53.0196Z" fill="black" fill-opacity="0.7"/>
<path d="M60.5622 44.1026H57.2792L56.7042 45.6506H55.2422L58.1472 38.1836H59.7472L62.6472 45.6506H61.1392L60.5622 44.1026ZM57.6912 43.0126H60.1492L58.9262 39.7636H58.9042L57.6912 43.0126Z" fill="black" fill-opacity="0.7"/>
<path d="M67.1999 38.2402V44.3942H70.9059V45.6512H65.7539V38.2402H67.1999Z" fill="black" fill-opacity="0.7"/>
<path d="M78.8839 38.2402V39.4862H76.3699V45.6522H74.9219V39.4852H72.4219V38.2402H78.8839Z" fill="black" fill-opacity="0.7"/>
<path d="M82.7998 38.2402L84.7578 41.5782L86.6938 38.2402H88.2628L85.4368 42.8182V45.6562H83.9908V42.8182L81.1758 38.2442L82.7998 38.2402Z" fill="black" fill-opacity="0.7"/>
</g>
</g>
<defs>
<clipPath id="clip0_96_878">
<rect width="125.167" height="45.302" fill="white" transform="translate(0.417969 0.348633)"/>
</clipPath>
</defs>
</svg>
